<svg xmlns="http://www.w3.org/2000/svg" viewBox="0 0 15 19"><defs><style>.a,.c{fill:none;}.a{stroke:#fff;}.b{stroke:none;}</style></defs><g transform="translate(-748 -545)"><g class="a" transform="translate(748 550)"><path class="b" d="M0,0H15a0,0,0,0,1,0,0V12a2,2,0,0,1-2,2H2a2,2,0,0,1-2-2V0A0,0,0,0,1,0,0Z"/><path class="c" d="M1,.5H14a.5.5,0,0,1,.5.5V12A1.5,1.5,0,0,1,13,13.5H2A1.5,1.5,0,0,1,.5,12V1A.5.5,0,0,1,1,.5Z"/></g><g class="a" transform="translate(751 545)"><path class="b" d="M3,0H6A3,3,0,0,1,9,3V6A0,0,0,0,1,9,6H0A0,0,0,0,1,0,6V3A3,3,0,0,1,3,0Z"/><path class="c" d="M3,.5H6A2.5,2.5,0,0,1,8.5,3V5a.5.5,0,0,1-.5.5H1A.5.5,0,0,1,.5,5V3A2.5,2.5,0,0,1,3,.5Z"/></g><line class="a" y2="5" transform="translate(751.5 550.5)"/><line class="a" y2="5" transform="translate(759.5 550.5)"/></g></svg>